<?xml version="1.0" encoding="UTF-8" standalone="no"?>
<!-- Created with Inkscape (http://www.inkscape.org/) -->

<svg
   xmlns:dc="http://purl.org/dc/elements/1.1/"
   xmlns:cc="http://creativecommons.org/ns#"
   xmlns:rdf="http://www.w3.org/1999/02/22-rdf-syntax-ns#"
   xmlns:svg="http://www.w3.org/2000/svg"
   xmlns="http://www.w3.org/2000/svg"
   xmlns:sodipodi="http://sodipodi.sourceforge.net/DTD/sodipodi-0.dtd"
   xmlns:inkscape="http://www.inkscape.org/namespaces/inkscape"
   id="svg2"
   version="1.1"
   inkscape:version="0.91 r13725"
   xml:space="preserve"
   width="452.5"
   height="452.5"
   viewBox="0 0 452.5 452.5"
   sodipodi:docname="jugmilano.svg"
   inkscape:export-filename="/home/andrea/dev/code/web/jugmilano.github.io/images/logo/logo_big.png"
   inkscape:export-xdpi="300.0657"
   inkscape:export-ydpi="300.0657"><metadata
     id="metadata8"><rdf:RDF><cc:Work
         rdf:about=""><dc:format>image/svg+xml</dc:format><dc:type
           rdf:resource="http://purl.org/dc/dcmitype/StillImage" /><dc:title /></cc:Work></rdf:RDF></metadata><defs
     id="defs6"><clipPath
       clipPathUnits="userSpaceOnUse"
       id="clipPath18"><path
         d="m 10,10 3600,0 0,3600 -3600,0 0,-3600 z"
         id="path20"
         inkscape:connector-curvature="0" /></clipPath></defs><sodipodi:namedview
     pagecolor="#ffffff"
     bordercolor="#666666"
     borderopacity="1"
     objecttolerance="10"
     gridtolerance="10"
     guidetolerance="10"
     inkscape:pageopacity="0"
     inkscape:pageshadow="2"
     inkscape:window-width="1920"
     inkscape:window-height="1016"
     id="namedview4"
     showgrid="false"
     inkscape:zoom="1.3470189"
     inkscape:cx="95.206533"
     inkscape:cy="162.31752"
     inkscape:window-x="0"
     inkscape:window-y="27"
     inkscape:window-maximized="1"
     inkscape:current-layer="g10"
     showguides="false" /><g
     id="g10"
     inkscape:groupmode="layer"
     inkscape:label="ink_ext_XXXXXX"
     transform="matrix(1.25,0,0,-1.25,0,452.5)"><g
       id="g12"
       transform="scale(0.1,0.1)"><path
         d="m 1633.3419,2965.3723 c -42.5844,-50.5059 -16.9699,-346.4348 -15.5007,-499.7577 l 64.5098,3.9643 c -1.3734,143.3234 14.5297,435.6592 -29.5012,495.865 0,0 -5.9249,7.6877 -9.8895,7.6725 -3.9244,-0.015 -9.6184,-7.7441 -9.6184,-7.7441 z m 83.1834,-492.3058 72.3112,6.7718 c -1.1019,114.9947 14.6361,247.966 -24.7461,357.5936 -91.3784,-30.877 -48.3156,-286.039 -47.5651,-364.3654 z m -188.8786,-7.9172 60.3362,0.2359 -4.6758,278.6402 c -0.2237,23.3389 -20.0678,85.7177 -53.9287,86.8909 -3.6942,-11.7115 -17.4937,-48.9318 -14.3184,-95.8753 z m -92.3914,249.1261 c -29.216,-81.9537 -17.7242,-162.0265 -16.9257,-245.3527 l 70.2776,-3.6774 c -0.6388,66.6669 25.2301,223.1119 -53.3519,249.0301 z m 382.9602,-231.0992 60.4148,6.2263 c -2.2281,69.6826 10.1288,151.9873 -7.8757,208.1473 -79.7568,-25.7655 -53.1779,-147.7067 -52.5391,-214.3736 z m 103.644,110.1415 c -16.2066,-23.0853 -12.7629,-101.3267 -12.7629,-101.3267 l 44.6463,3.821 c 0,0 5.6846,62.7276 3.3952,94.4303 -0.5755,7.9694 -3.5371,23.7078 -3.5371,23.7078 0,0 -20.7686,-5.0022 -31.7415,-20.6324 z m -575.7166,-112.1231 40.3371,-6.5296 c 0,0 -2.9872,63.6579 -4.8543,92.3408 -1.9012,29.2074 -28.5558,38.7424 -29.004,37.6355 -16.8855,-41.6961 -6.6597,-123.3166 -6.6597,-123.3166"
         style="fill:#e26d56;fill-opacity:1;fill-rule:nonzero;stroke:none"
         id="path22"
         inkscape:connector-curvature="0"
         sodipodi:nodetypes="ccccscccccccccccccccccccsccscsccssc"
         inkscape:export-xdpi="153"
         inkscape:export-ydpi="153" /><path
         d="m 2087.0461,2530.5124 80.0921,-12.6225 c 221.5316,-55.7814 -92.8397,-222.5105 -107.1204,-297.6508 104.7717,24.3351 292.2625,112.8056 250.9389,250.746 -22.4255,79.7888 -169.5999,131.721 -223.9106,59.5273 z m -697.6768,-17.2261 c 9.9531,4.4994 18.5413,12.5387 24.9778,14.3481 0.081,2.2636 -3.6106,8.36 -25.3712,4.8643 0,0 0.1159,-9.465 0.3934,-19.2124 z m 638.4461,-63.3452 24.8904,23.3886 c -238.3031,-3.9536 -515.7233,-65.695 -742.2246,-14.8217 0,0 -20.4305,6.7628 -19.9158,13.4097 1.447,18.6883 48.5471,28.761 48.5471,28.761 -0.1465,6.635 -0.3004,12.9467 -0.3456,20.4199 -33.2487,-8.6489 -158.0139,-34.2722 -150.913,-79.2063 7.1967,-54.9335 158.8817,-56.8102 200.5658,-58.0808 221.7556,-7.8756 608.1098,36.7315 639.3957,66.1296 z m -48.273,-180.4708 c -145.4085,41.9386 -281.5613,-12.6985 -429.9803,-4.1202 -61.715,4.4088 -139.9616,-4.6713 -150.6638,68.5595 -49.9338,-7.1488 -112.7818,-57.7533 -49.0555,-98.8046 115.7293,-75.5646 352.085,-41.6283 480.2016,-18.7396 48.2478,8.8027 118.2606,7.8035 149.498,53.1049 z m -27.9864,-210.2778 c -60.9715,101.0904 -282.0085,33.9694 -380.3659,36.357 -49.9977,-0.4791 -106.697,2.3078 -130.4731,48.7521 -159.6733,-34.8616 22.8508,-123.1167 91.2894,-134.1315 146.9029,-23.5934 276.4657,22.6502 419.5496,49.0224 z m 300.5611,-57.1227 -123.6091,-49.6343 c -291.0491,-116.8685 -959.007,-63.5871 -978.9479,-16.4931 0,0 -4.0845,15.8274 19.7692,26.4673 56.9601,25.4071 94.7653,24.8441 141.2971,43.7684 15.8484,6.4456 26.91,24.7855 26.91,24.7855 -73.3106,-2.3726 -183.9224,-16.089 -245.1744,-60.0079 -21.5253,-15.2069 -57.8801,-47.2268 -34.2797,-75.3319 37.0676,-41.3167 220.5169,-52.8895 275.5143,-52.3625 236.6752,0.5979 465.2182,-20.5432 699.6644,38.3759 81.4747,20.7817 191.4696,21.8357 218.8561,120.4326 z m -948.1358,-199.0941 c 47.1309,-47.8806 153.786,-46.8586 220.469,-47.8897 186.7093,-3.2111 395.1096,-9.5445 579.6859,35.5562 73.151,19.0318 184.6401,38.4409 208.8405,122.0066 -330.3772,-136.5019 -662.1976,-121.3506 -1008.9954,-109.6731"
         style="fill:#7d719f;fill-opacity:1;fill-rule:nonzero;stroke:none"
         id="path24"
         inkscape:connector-curvature="0"
         sodipodi:nodetypes="cccccccccsccsccccsccccccccccccscssccccccccccc"
         inkscape:export-xdpi="153"
         inkscape:export-ydpi="153" /><path
         d="m 1297.5162,1642.5998 c 11.6658,-3.7686 26.6187,-343.0887 -0.2088,-500.025 -6.735,-33.9687 -65.1596,-128.5886 -64.478,-167.15587 0.1226,-6.93618 17.7862,-2.98668 17.7862,-2.98668 71.8676,11.5694 122.1217,76.64025 132.2628,110.95985 38.3532,172.0473 6.3424,381.7482 4.6337,560.0701 z m 720.6485,-272.8007 c -22.5464,-81.8878 -96.1545,-54.2519 -159.5135,-51.5308 l 0.6707,-69.9968 100.0912,-9.0414 c 216.6282,5.404 157.6451,246.5219 156.1599,401.5148 -84.9801,-2.4844 -193.6405,31.476 -257.9987,-35.8038 -123.7806,-127.8619 15.9325,-271.5298 160.5904,-235.142 z m -544.7777,273.1912 c 0.7026,-73.3266 -29.4488,-231.9608 37.6973,-281.3197 52.0349,-37.8351 188.4012,-6.527 255.0681,-5.8882 -1.1019,114.9947 47.235,288.7959 -102.7742,289.0285 0.4791,-49.9977 21.612,-168.1306 -14.7209,-203.4804 -90.8093,-89.2122 -84.9391,167.5238 -85.2745,202.5222 z m 482.8322,-70.4455 c 79.6929,32.4351 97.7515,-112.3985 47.9933,-137.8764 -87.9367,-42.5126 -121.0325,107.1752 -47.9933,137.8764"
         style="fill:#e26d56;fill-opacity:1;fill-rule:nonzero;stroke:none"
         id="path26"
         inkscape:connector-curvature="0"
         sodipodi:nodetypes="ccsccccccccccccccccccccc"
         inkscape:export-xdpi="153"
         inkscape:export-ydpi="153" /><g
         id="g32"
         transform="matrix(10,0,0,10,230.7533,-407.58994)"
         inkscape:export-xdpi="153"
         inkscape:export-ydpi="153"><g
           transform="scale(1,-1)"
           style="font-style:normal;font-variant:normal;font-weight:bold;font-stretch:normal;font-size:36px;line-height:100%;font-family:'Yanone Kaffeesatz';-inkscape-font-specification:'Yanone Kaffeesatz, Bold';text-align:start;writing-mode:lr-tb;text-anchor:start;fill:#417874;fill-opacity:1;fill-rule:nonzero;stroke:none"
           id="text34"><path
             d="m 133.25896,-162.31458 q 0.144,-0.432 0.252,-0.576 0.144,-0.144 0.468,-0.144 l 3.348,0 0,24.48 q 0,0.396 -0.18,0.54 -0.18,0.108 -1.188,0.144 -1.008,0.036 -2.736,0.036 l 0.18,-6.912 q 0.072,-2.556 0.288,-4.932 0.252,-2.412 0.468,-3.924 0.216,-1.512 0.288,-1.908 l -0.108,-0.072 q -1.332,5.292 -1.836,6.696 l -1.728,4.788 q -0.072,0.252 -0.396,0.252 l -1.656,0 -1.692,-5.04 q -0.504,-1.512 -1.764,-6.696 l -0.108,0.072 q 0.072,0.396 0.288,1.908 0.252,1.476 0.468,3.852 0.252,2.376 0.252,4.968 l 0.108,6.228 q 0,0.396 -0.216,0.54 -0.216,0.108 -1.188,0.144 -0.972,0.036 -2.556,0.036 l 0,-24.48 q 0,-0.468 0.18,-0.576 0.18,-0.144 0.54,-0.144 l 3.024,0 2.88,8.928 q 0.468,1.368 0.684,2.376 0.252,1.008 0.288,1.26 0.036,-0.252 0.252,-1.26 0.216,-1.008 0.612,-2.304 l 2.484,-8.28 z"
             id="path4502"
             style="fill:#7d719f;fill-opacity:1" /><path
             d="m 139.57921,-160.37058 q 0,-1.296 0.54,-2.052 0.576,-0.756 1.656,-0.756 1.08,0 1.476,0.576 0.432,0.576 0.396,2.052 0,1.44 -0.54,2.268 -0.54,0.792 -1.584,0.792 -0.972,0 -1.476,-0.648 -0.468,-0.648 -0.468,-2.232 z m 4.068,21.816 q 0,0.396 -0.18,0.54 -0.18,0.108 -1.188,0.144 -1.008,0.036 -2.7,0.036 l 0,-16.236 q 0,-0.9 0.324,-1.224 0.324,-0.36 1.08,-0.432 0.756,-0.108 2.664,-0.108 l 0,17.28 z"
             id="path4504"
             style="fill:#7d719f;fill-opacity:1" /><path
             d="m 150.04396,-138.55458 q 0,0.396 -0.18,0.54 -0.18,0.108 -1.152,0.144 -0.972,0.036 -2.664,0.036 l 0,-24.696 q 0,-0.9 0.324,-1.224 0.324,-0.36 1.044,-0.432 0.756,-0.108 2.628,-0.108 l 0,25.74 z"
             id="path4506"
             style="fill:#7d719f;fill-opacity:1" /><path
             d="m 162.4544,-150.11058 q 0,8.82 -0.18,11.484 -1.944,1.152 -5.184,1.152 -1.548,0 -2.664,-0.396 -1.08,-0.396 -1.764,-1.62 -0.684,-1.26 -0.684,-3.6 0,-3.384 1.152,-4.644 1.152,-1.296 3.024,-1.296 1.476,0 2.304,0.54 l 0,-2.484 q 0,-0.72 -0.36,-1.044 -0.324,-0.324 -1.152,-0.324 -2.268,0 -4.356,0.756 -0.54,-1.044 -0.54,-2.304 0,-0.864 0.504,-1.26 0.468,-0.36 1.944,-0.684 1.476,-0.36 3.42,-0.36 2.484,0 3.492,1.008 1.044,0.972 1.044,3.384 l 0,1.692 z m -3.996,4.32 q -0.36,-0.324 -0.936,-0.324 -0.684,0 -1.008,0.648 -0.324,0.612 -0.324,2.268 0,1.332 0.252,1.908 0.252,0.54 0.936,0.54 0.684,0 1.008,-0.36 0.072,-0.828 0.072,-4.68 z"
             id="path4508"
             style="fill:#7d719f;fill-opacity:1" /><path
             d="m 164.68077,-155.00658 q 0.936,-0.432 2.592,-0.792 1.692,-0.396 2.988,-0.396 2.808,0 3.996,1.008 1.188,1.008 1.188,3.636 l 0,12.996 q 0,0.396 -0.216,0.54 -0.18,0.108 -1.224,0.144 -1.008,0.036 -2.7,0.036 l 0,-12.456 q 0,-1.476 -0.252,-1.98 -0.216,-0.504 -0.936,-0.504 -0.792,0 -1.44,0.432 l 0,13.788 q 0,0.396 -0.216,0.54 -0.18,0.108 -1.152,0.144 -0.972,0.036 -2.628,0.036 l 0,-17.172 z"
             id="path4510"
             style="fill:#7d719f;fill-opacity:1" /><path
             d="m 177.57215,-146.87058 q 0,-9.324 5.976,-9.324 2.016,0 3.204,0.828 1.224,0.792 1.8,2.772 0.612,1.98 0.612,5.58 0,5.076 -1.476,7.308 -1.44,2.232 -4.428,2.232 -2.124,0 -3.312,-0.684 -1.188,-0.72 -1.8,-2.736 -0.576,-2.016 -0.576,-5.976 z m 4.392,-0.036 q 0,2.7 0.144,4.032 0.18,1.296 0.468,1.692 0.288,0.396 0.792,0.396 0.432,0 0.72,-0.396 0.288,-0.432 0.468,-1.764 0.216,-1.368 0.216,-3.96 0,-2.628 -0.108,-3.852 -0.108,-1.26 -0.396,-1.692 -0.288,-0.432 -0.864,-0.432 -0.684,0 -1.08,1.224 -0.36,1.224 -0.36,4.752 z"
             id="path4512"
             style="fill:#7d719f;fill-opacity:1" /></g></g></g></g></svg>