<?xml version="1.0" encoding="UTF-8" standalone="no"?>
<!-- Created with Inkscape (http://www.inkscape.org/) -->

<svg
   xmlns:dc="http://purl.org/dc/elements/1.1/"
   xmlns:cc="http://creativecommons.org/ns#"
   xmlns:rdf="http://www.w3.org/1999/02/22-rdf-syntax-ns#"
   xmlns:svg="http://www.w3.org/2000/svg"
   xmlns="http://www.w3.org/2000/svg"
   xmlns:sodipodi="http://sodipodi.sourceforge.net/DTD/sodipodi-0.dtd"
   xmlns:inkscape="http://www.inkscape.org/namespaces/inkscape"
   id="svg2"
   version="1.1"
   inkscape:version="0.91 r13725"
   xml:space="preserve"
   width="452.5"
   height="452.5"
   viewBox="0 0 452.5 452.5"
   sodipodi:docname="jugmilano.svg"
   inkscape:export-filename="/home/andrea/dev/code/web/jugmilano.github.io/images/logo/logo.png"
   inkscape:export-xdpi="161.51863"
   inkscape:export-ydpi="161.51863"><metadata
     id="metadata8"><rdf:RDF><cc:Work
         rdf:about=""><dc:format>image/svg+xml</dc:format><dc:type
           rdf:resource="http://purl.org/dc/dcmitype/StillImage" /><dc:title /></cc:Work></rdf:RDF></metadata><defs
     id="defs6"><clipPath
       clipPathUnits="userSpaceOnUse"
       id="clipPath18"><path
         d="m 10,10 3600,0 0,3600 -3600,0 0,-3600 z"
         id="path20"
         inkscape:connector-curvature="0" /></clipPath></defs><sodipodi:namedview
     pagecolor="#ffffff"
     bordercolor="#666666"
     borderopacity="1"
     objecttolerance="10"
     gridtolerance="10"
     guidetolerance="10"
     inkscape:pageopacity="0"
     inkscape:pageshadow="2"
     inkscape:window-width="1366"
     inkscape:window-height="704"
     id="namedview4"
     showgrid="false"
     inkscape:zoom="1.9049724"
     inkscape:cx="217.07842"
     inkscape:cy="222.90361"
     inkscape:window-x="0"
     inkscape:window-y="27"
     inkscape:window-maximized="1"
     inkscape:current-layer="g10"
     showguides="false" /><g
     inkscape:groupmode="layer"
     id="layer1"
     inkscape:label="external shape"
     style="display:none"><path
       style="display:inline;fill:#ffffff;fill-opacity:1;fill-rule:nonzero;stroke:none"
       d="m 199.0252,64.453896 c -24.15344,4.610222 -27.11342,27.115726 -42.02192,41.761824 -22.08645,21.69769 -30.74381,28.65971 -25.8281,56.4243 3.96907,22.41785 -13.59598,19.32598 -19.05469,40.8895 -3.65355,14.43262 12.68156,24.18164 19.90099,36.34157 20.77665,34.99483 -23.17982,107.18617 22.67127,107.23127 35.60991,0.035 73.42029,-0.36687 107.95761,-0.31855 39.46244,0.0552 0.0483,-77.8466 16.77542,-103.07092 10.30924,-15.54621 31.05557,-20.81408 18.30824,-43.8166 -18.80498,-33.93353 21.52585,-54.42275 -2.44298,-67.63573 C 265.99126,116.10885 258.12735,115.49275 244.56885,99.79669 231.01034,84.100628 218.43865,60.748406 199.0252,64.453896 Z"
       id="path22-3"
       inkscape:connector-curvature="0"
       sodipodi:nodetypes="ssssssssssss" /></g><g
     id="g10"
     inkscape:groupmode="layer"
     inkscape:label="logo"
     transform="matrix(1.25,0,0,-1.25,0,452.5)"
     style="display:inline"><g
       id="g12"
       transform="matrix(0.1,0,0,0.1,-3.8188867,-0.57788883)"><path
         d="m 1633.3419,2965.3723 c -42.5844,-50.5059 -16.9699,-346.4348 -15.5007,-499.7577 l 64.5098,3.9643 c -1.3734,143.3234 14.5297,435.6592 -29.5012,495.865 0,0 -5.9249,7.6877 -9.8895,7.6725 -3.9244,-0.015 -9.6184,-7.7441 -9.6184,-7.7441 z m 83.1834,-492.3058 72.3112,6.7718 c -1.1019,114.9947 14.6361,247.966 -24.7461,357.5936 -91.3784,-30.877 -48.3156,-286.039 -47.5651,-364.3654 z m -188.8786,-7.9172 60.3362,0.2359 -4.6758,278.6402 c -0.2237,23.3389 -20.0678,85.7177 -53.9287,86.8909 -3.6942,-11.7115 -17.4937,-48.9318 -14.3184,-95.8753 z m -92.3914,249.1261 c -29.216,-81.9537 -17.7242,-162.0265 -16.9257,-245.3527 l 70.2776,-3.6774 c -0.6388,66.6669 25.2301,223.1119 -53.3519,249.0301 z m 382.9602,-231.0992 60.4148,6.2263 c -2.2281,69.6826 10.1288,151.9873 -7.8757,208.1473 -79.7568,-25.7655 -53.1779,-147.7067 -52.5391,-214.3736 z m 103.644,110.1415 c -16.2066,-23.0853 -12.7629,-101.3267 -12.7629,-101.3267 l 44.6463,3.821 c 0,0 5.6846,62.7276 3.3952,94.4303 -0.5755,7.9694 -3.5371,23.7078 -3.5371,23.7078 0,0 -20.7686,-5.0022 -31.7415,-20.6324 z m -575.7166,-112.1231 40.3371,-6.5296 c 0,0 -2.9872,63.6579 -4.8543,92.3408 -1.9012,29.2074 -28.5558,38.7424 -29.004,37.6355 -16.8855,-41.6961 -6.6597,-123.3166 -6.6597,-123.3166"
         style="fill:#e26d56;fill-opacity:1;fill-rule:nonzero;stroke:none"
         id="path22"
         inkscape:connector-curvature="0"
         sodipodi:nodetypes="ccccscccccccccccccccccccsccscsccssc"
         inkscape:export-xdpi="153"
         inkscape:export-ydpi="153" /><path
         d="m 2087.0461,2530.5124 80.0921,-12.6225 c 221.5316,-55.7814 -92.8397,-222.5105 -107.1204,-297.6508 104.7717,24.3351 292.2625,112.8056 250.9389,250.746 -22.4255,79.7888 -169.5999,131.721 -223.9106,59.5273 z m -697.6768,-17.2261 c 9.9531,4.4994 18.5413,12.5387 24.9778,14.3481 0.081,2.2636 -3.6106,8.36 -25.3712,4.8643 0,0 0.1159,-9.465 0.3934,-19.2124 z m 638.4461,-63.3452 24.8904,23.3886 c -238.3031,-3.9536 -515.7233,-65.695 -742.2246,-14.8217 0,0 -20.4305,6.7628 -19.9158,13.4097 1.447,18.6883 48.5471,28.761 48.5471,28.761 -0.1465,6.635 -0.3004,12.9467 -0.3456,20.4199 -33.2487,-8.6489 -158.0139,-34.2722 -150.913,-79.2063 7.1967,-54.9335 158.8817,-56.8102 200.5658,-58.0808 221.7556,-7.8756 608.1098,36.7315 639.3957,66.1296 z m -48.273,-180.4708 c -145.4085,41.9386 -281.5613,-12.6985 -429.9803,-4.1202 -61.715,4.4088 -139.9616,-4.6713 -150.6638,68.5595 -49.9338,-7.1488 -112.7818,-57.7533 -49.0555,-98.8046 115.7293,-75.5646 352.085,-41.6283 480.2016,-18.7396 48.2478,8.8027 118.2606,7.8035 149.498,53.1049 z m -27.9864,-210.2778 c -60.9715,101.0904 -282.0085,33.9694 -380.3659,36.357 -49.9977,-0.4791 -106.697,2.3078 -130.4731,48.7521 -159.6733,-34.8616 22.8508,-123.1167 91.2894,-134.1315 146.9029,-23.5934 276.4657,22.6502 419.5496,49.0224 z m 300.5611,-57.1227 -123.6091,-49.6343 c -291.0491,-116.8685 -959.007,-63.5871 -978.9479,-16.4931 0,0 -4.0845,15.8274 19.7692,26.4673 56.9601,25.4071 94.7653,24.8441 141.2971,43.7684 15.8484,6.4456 26.91,24.7855 26.91,24.7855 -73.3106,-2.3726 -183.9224,-16.089 -245.1744,-60.0079 -21.5253,-15.2069 -57.8801,-47.2268 -34.2797,-75.3319 37.0676,-41.3167 220.5169,-52.8895 275.5143,-52.3625 236.6752,0.5979 465.2182,-20.5432 699.6644,38.3759 81.4747,20.7817 191.4696,21.8357 218.8561,120.4326 z m -948.1358,-199.0941 c 47.1309,-47.8806 153.786,-46.8586 220.469,-47.8897 186.7093,-3.2111 395.1096,-9.5445 579.6859,35.5562 73.151,19.0318 184.6401,38.4409 208.8405,122.0066 -330.3772,-136.5019 -662.1976,-121.3506 -1008.9954,-109.6731"
         style="fill:#7d719f;fill-opacity:1;fill-rule:nonzero;stroke:none"
         id="path24"
         inkscape:connector-curvature="0"
         sodipodi:nodetypes="cccccccccsccsccccsccccccccccccscssccccccccccc"
         inkscape:export-xdpi="153"
         inkscape:export-ydpi="153" /><path
         d="m 1297.5162,1642.5998 c 11.6658,-3.7686 33.9679,-426.0295 2.9409,-496.8753 -6.735,-33.9687 -67.6277,-170.30557 -67.6277,-170.30557 0,0 148.4998,48.15717 163.6975,94.32467 38.3532,172.0473 -7.3061,395.3967 -9.0148,573.7186 z m 720.6485,-272.8007 c -22.5464,-81.8878 -96.1545,-54.2519 -159.5135,-51.5308 l 0.6707,-69.9968 100.0912,-9.0414 c 216.6282,5.404 157.6451,246.5219 156.1599,401.5148 -84.9801,-2.4844 -193.6405,31.476 -257.9987,-35.8038 -123.7806,-127.8619 15.9325,-271.5298 160.5904,-235.142 z m -544.7777,273.1912 c 0.7026,-73.3266 -29.4488,-231.9608 37.6973,-281.3197 52.0349,-37.8351 188.4012,-6.527 255.0681,-5.8882 -1.1019,114.9947 47.235,288.7959 -102.7742,289.0285 0.4791,-49.9977 21.612,-168.1306 -14.7209,-203.4804 -90.8093,-89.2122 -84.9391,167.5238 -85.2745,202.5222 z m 482.8322,-70.4455 c 79.6929,32.4351 97.7515,-112.3985 47.9933,-137.8764 -87.9367,-42.5126 -121.0325,107.1752 -47.9933,137.8764"
         style="fill:#e26d56;fill-opacity:1;fill-rule:nonzero;stroke:none"
         id="path26"
         inkscape:connector-curvature="0"
         sodipodi:nodetypes="ccccccccccccccccccccccc"
         inkscape:export-xdpi="153"
         inkscape:export-ydpi="153" /><g
         id="g32"
         transform="matrix(10,0,0,10,230.7533,-407.58994)"
         inkscape:export-xdpi="153"
         inkscape:export-ydpi="153"><g
           transform="scale(1,-1)"
           style="font-style:normal;font-variant:normal;font-weight:bold;font-stretch:normal;font-size:36px;line-height:100%;font-family:'Yanone Kaffeesatz';-inkscape-font-specification:'Yanone Kaffeesatz, Bold';text-align:start;writing-mode:lr-tb;text-anchor:start;fill:#417874;fill-opacity:1;fill-rule:nonzero;stroke:none"
           id="text34"><g
             id="g4176"><g
               id="g4184"><path
                 style="fill:#716595;fill-opacity:1"
                 d="m 150.88333,-164.29493 c -1.248,0 -2.12413,0.0358 -2.62813,0.10781 -0.48,0.048 -0.82775,0.19282 -1.04375,0.43282 -0.216,0.216 -0.32343,0.62344 -0.32343,1.22344 l 0,24.69687 c 1.128,0 2.01606,-0.0119 2.66406,-0.0359 0.648,-0.024 1.03156,-0.0733 1.15156,-0.14531 0.12,-0.096 0.17969,-0.27507 0.17969,-0.53907 l 0,-25.74062 z m -8.26875,1.11563 c -0.72,0 -1.27069,0.25225 -1.65469,0.75625 -0.36,0.504 -0.54062,1.18912 -0.54062,2.05312 0,1.056 0.15518,1.79925 0.46718,2.23125 0.336,0.432 0.82857,0.64844 1.47657,0.64844 0.696,0 1.22437,-0.26419 1.58437,-0.79219 0.36,-0.552 0.53906,-1.30874 0.53906,-2.26874 0.024,-0.984 -0.10731,-1.66757 -0.39531,-2.05157 -0.264,-0.384 -0.75656,-0.57656 -1.47656,-0.57656 z m -18.73907,0.14531 c -0.24,0 -0.42062,0.0478 -0.54062,0.14375 -0.12,0.072 -0.17969,0.263 -0.17969,0.575 l 0,24.48125 c 1.056,0 1.90825,-0.0119 2.55625,-0.0359 0.648,-0.024 1.0435,-0.0733 1.1875,-0.14531 0.144,-0.096 0.21563,-0.27507 0.21563,-0.53907 l -0.10782,-6.22812 c 0,-1.728 -0.0836,-3.38475 -0.25156,-4.96875 -0.144,-1.584 -0.30075,-2.86757 -0.46875,-3.85157 -0.144,-1.008 -0.2395,-1.6438 -0.2875,-1.9078 l 0.10781,-0.0718 c 0.84,3.456 1.42807,5.68731 1.76407,6.69531 l 1.69219,5.04062 1.65625,0 c 0.216,1e-5 0.34731,-0.0836 0.39531,-0.25156 l 1.72813,-4.78906 c 0.336,-0.936 0.94793,-3.16731 1.83593,-6.69531 l 0.10781,0.0718 c -0.048,0.264 -0.1435,0.8998 -0.2875,1.9078 -0.144,1.008 -0.30075,2.31544 -0.46875,3.92344 -0.144,1.584 -0.23949,3.22882 -0.28749,4.93281 l -0.17969,6.91251 c 1.152,0 2.06393,-0.0119 2.73593,-0.0359 0.672,-0.024 1.0675,-0.0733 1.1875,-0.14532 0.12,-0.096 0.17969,-0.27506 0.17969,-0.53906 l 0,-24.47969 -3.34687,0 c -0.216,0 -0.37276,0.0478 -0.46876,0.14375 -0.072,0.096 -0.15556,0.287 -0.25156,0.575 l -2.48437,8.28125 c -0.264,0.864 -0.46694,1.63113 -0.61094,2.30313 -0.144,0.672 -0.22913,1.09294 -0.25313,1.26094 -0.024,-0.168 -0.11949,-0.58894 -0.28749,-1.26094 -0.144,-0.672 -0.37238,-1.463 -0.68438,-2.375 l -2.87969,-8.92813 -3.02344,0 z m 34.88282,6.83906 c -1.296,0 -2.43631,0.12094 -3.42031,0.36094 -0.984,0.216 -1.63175,0.44282 -1.94375,0.68282 -0.336,0.264 -0.50469,0.68493 -0.50469,1.26093 0,0.84 0.18062,1.60712 0.54062,2.30312 1.392,-0.504 2.84425,-0.75469 4.35625,-0.75469 0.552,0 0.93557,0.10744 1.15157,0.32344 0.24,0.216 0.36093,0.56376 0.36093,1.04376 l 0,2.48437 c -0.552,-0.36 -1.32068,-0.54062 -2.30468,-0.54062 -1.248,0 -2.25544,0.43287 -3.02344,1.29687 -0.768,0.84 -1.15312,2.38775 -1.15312,4.64375 0,1.56 0.22837,2.76 0.68437,3.6 0.45599,0.816 1.04406,1.35631 1.76406,1.62031 0.744,0.264 1.63206,0.39532 2.66406,0.39532 2.16,0 3.88838,-0.38356 5.18438,-1.15156 0.12,-1.776 0.17969,-5.60438 0.17969,-11.48438 l 0,-1.69219 c 0,-1.608 -0.34776,-2.73638 -1.04376,-3.38438 -0.672,-0.672 -1.83618,-1.00781 -3.49218,-1.00781 z m 12.34218,0 c -0.864,0 -1.85949,0.13288 -2.98749,0.39688 -1.104,0.24 -1.96819,0.50419 -2.59219,0.79219 l 0,17.17187 c 1.104,0 1.98012,-0.0119 2.62812,-0.0359 0.648,-0.024 1.03156,-0.0733 1.15156,-0.14531 0.144,-0.096 0.21563,-0.27507 0.21563,-0.53907 l 0,-13.7875 c 0.432,-0.288 0.91262,-0.43281 1.44062,-0.43281 0.48,0 0.79195,0.16869 0.93595,0.50469 0.168,0.336 0.25156,0.99569 0.25156,1.97969 l 0,12.45625 c 1.128,0 2.028,-0.0119 2.7,-0.0359 0.696,-0.024 1.105,-0.0733 1.225,-0.14532 0.144,-0.096 0.21562,-0.27506 0.21562,-0.53906 l 0,-12.99687 c 0,-1.752 -0.3955,-2.96395 -1.1875,-3.63595 -0.792,-0.672 -2.12488,-1.0078 -3.99688,-1.0078 z m 13.28751,0 c -3.984,0 -5.97657,3.109 -5.97657,9.325 0,2.64 0.19257,4.631 0.57657,5.975 0.408,1.344 1.008,2.25594 1.8,2.73594 0.792,0.456 1.89649,0.68438 3.31249,0.68438 1.992,0 3.46813,-0.74325 4.42813,-2.23125 0.984,-1.488 1.475,-3.92538 1.475,-7.30938 0,-2.4 -0.20293,-4.25969 -0.61093,-5.57969 -0.384,-1.32 -0.984,-2.24388 -1.8,-2.77188 -0.792,-0.552 -1.86069,-0.82812 -3.20469,-0.82812 z m -39.90157,0.36094 c -1.272,0 -2.16006,0.0358 -2.66406,0.10782 -0.504,0.048 -0.86368,0.19124 -1.07968,0.43124 -0.216,0.216 -0.32344,0.625 -0.32344,1.225 l 0,16.23594 c 1.128,0 2.028,-0.0119 2.7,-0.0359 0.672,-0.024 1.06749,-0.0733 1.18749,-0.14531 0.12,-0.096 0.17969,-0.27507 0.17969,-0.53907 l 0,-17.27968 z m 39.75782,2.95156 c 0.384,0 0.67206,0.14326 0.86406,0.43126 0.192,0.288 0.32331,0.85218 0.39531,1.69218 0.072,0.816 0.10781,2.10113 0.10781,3.85313 0,1.728 -0.0716,3.04737 -0.21562,3.95937 -0.12,0.888 -0.27519,1.47606 -0.46719,1.76406 -0.192,0.264 -0.43231,0.39531 -0.72031,0.39531 -0.336,0 -0.60019,-0.13131 -0.79219,-0.39531 -0.192,-0.264 -0.34875,-0.82818 -0.46875,-1.69218 -0.096,-0.888 -0.14375,-2.23125 -0.14375,-4.03125 0,-2.352 0.12094,-3.93713 0.36094,-4.75313 0.264,-0.816 0.62369,-1.22344 1.07969,-1.22344 z m -25.88125,6.76719 c 0.384,0 0.69593,0.109 0.93593,0.325 0,2.568 -0.0238,4.12769 -0.0718,4.67969 -0.216,0.24 -0.55336,0.35938 -1.00936,0.35938 -0.456,0 -0.76795,-0.17907 -0.93595,-0.53907 -0.168,-0.384 -0.25156,-1.01981 -0.25156,-1.90781 0,-1.104 0.10744,-1.86076 0.32344,-2.26876 0.216,-0.432 0.55338,-0.64843 1.00938,-0.64843 z"
                 id="path4502"
                 inkscape:connector-curvature="0" /></g></g></g></g></g></g></svg>